<mxfile host="app.diagrams.net" agent="Mozilla/5.0 (Windows NT 10.0; Win64; x64) AppleWebKit/537.36 (KHTML, like Gecko) Chrome/126.0.0.0 YaBrowser/24.7.0.0 Safari/537.36" version="24.7.17" pages="3">
  <diagram name="Страница — 1" id="VzmRVu5vMlSCaogCZ_je">
    <mxGraphModel dx="3627" dy="2367" grid="1" gridSize="10" guides="1" tooltips="1" connect="1" arrows="1" fold="1" page="1" pageScale="1" pageWidth="827" pageHeight="1169" math="0" shadow="0">
      <root>
        <mxCell id="0" />
        <mxCell id="1" parent="0" />
        <mxCell id="nmumD-B5Ra5Cr4ays23r-20" value="" style="edgeStyle=orthogonalEdgeStyle;rounded=0;orthogonalLoop=1;jettySize=auto;html=1;" parent="1" source="nmumD-B5Ra5Cr4ays23r-1" target="nmumD-B5Ra5Cr4ays23r-5" edge="1">
          <mxGeometry relative="1" as="geometry">
            <Array as="points">
              <mxPoint x="80" y="-400" />
              <mxPoint x="80" y="-400" />
            </Array>
          </mxGeometry>
        </mxCell>
        <mxCell id="nmumD-B5Ra5Cr4ays23r-28" style="edgeStyle=orthogonalEdgeStyle;rounded=0;orthogonalLoop=1;jettySize=auto;html=1;exitX=0;exitY=1;exitDx=0;exitDy=0;exitPerimeter=0;entryX=0;entryY=0.5;entryDx=0;entryDy=0;" parent="1" source="nmumD-B5Ra5Cr4ays23r-1" target="nmumD-B5Ra5Cr4ays23r-7" edge="1">
          <mxGeometry relative="1" as="geometry" />
        </mxCell>
        <mxCell id="nmumD-B5Ra5Cr4ays23r-1" value="Читатель" style="shape=umlActor;verticalLabelPosition=bottom;verticalAlign=top;html=1;outlineConnect=0;" parent="1" vertex="1">
          <mxGeometry y="-420" width="30" height="60" as="geometry" />
        </mxCell>
        <mxCell id="nmumD-B5Ra5Cr4ays23r-40" value="" style="edgeStyle=orthogonalEdgeStyle;rounded=0;orthogonalLoop=1;jettySize=auto;html=1;" parent="1" source="nmumD-B5Ra5Cr4ays23r-4" target="nmumD-B5Ra5Cr4ays23r-39" edge="1">
          <mxGeometry relative="1" as="geometry" />
        </mxCell>
        <mxCell id="3eoNS1XtMzhZHBGaIGGO-1" style="edgeStyle=orthogonalEdgeStyle;rounded=0;orthogonalLoop=1;jettySize=auto;html=1;entryX=0;entryY=0.5;entryDx=0;entryDy=0;" parent="1" source="nmumD-B5Ra5Cr4ays23r-4" target="aUxKRUiWRqeRugZHZOHy-1" edge="1">
          <mxGeometry relative="1" as="geometry" />
        </mxCell>
        <mxCell id="3eoNS1XtMzhZHBGaIGGO-5" style="edgeStyle=orthogonalEdgeStyle;rounded=0;orthogonalLoop=1;jettySize=auto;html=1;entryX=1;entryY=0.5;entryDx=0;entryDy=0;" parent="1" source="nmumD-B5Ra5Cr4ays23r-4" target="3eoNS1XtMzhZHBGaIGGO-2" edge="1">
          <mxGeometry relative="1" as="geometry" />
        </mxCell>
        <mxCell id="3eoNS1XtMzhZHBGaIGGO-6" style="edgeStyle=orthogonalEdgeStyle;rounded=0;orthogonalLoop=1;jettySize=auto;html=1;entryX=1;entryY=0.5;entryDx=0;entryDy=0;" parent="1" source="nmumD-B5Ra5Cr4ays23r-4" target="3eoNS1XtMzhZHBGaIGGO-3" edge="1">
          <mxGeometry relative="1" as="geometry">
            <Array as="points">
              <mxPoint x="430" y="-490" />
              <mxPoint x="430" y="-680" />
            </Array>
          </mxGeometry>
        </mxCell>
        <mxCell id="3eoNS1XtMzhZHBGaIGGO-8" style="edgeStyle=orthogonalEdgeStyle;rounded=0;orthogonalLoop=1;jettySize=auto;html=1;entryX=0;entryY=0.5;entryDx=0;entryDy=0;" parent="1" source="nmumD-B5Ra5Cr4ays23r-4" target="3eoNS1XtMzhZHBGaIGGO-4" edge="1">
          <mxGeometry relative="1" as="geometry">
            <Array as="points">
              <mxPoint x="500" y="-476" />
              <mxPoint x="500" y="-620" />
            </Array>
          </mxGeometry>
        </mxCell>
        <mxCell id="nmumD-B5Ra5Cr4ays23r-4" value="Админ" style="shape=umlActor;verticalLabelPosition=bottom;verticalAlign=top;html=1;outlineConnect=0;" parent="1" vertex="1">
          <mxGeometry x="450" y="-506.25" width="30" height="60" as="geometry" />
        </mxCell>
        <mxCell id="nmumD-B5Ra5Cr4ays23r-21" value="" style="edgeStyle=orthogonalEdgeStyle;rounded=0;orthogonalLoop=1;jettySize=auto;html=1;" parent="1" source="nmumD-B5Ra5Cr4ays23r-5" target="nmumD-B5Ra5Cr4ays23r-11" edge="1">
          <mxGeometry relative="1" as="geometry" />
        </mxCell>
        <mxCell id="nmumD-B5Ra5Cr4ays23r-5" value="Авторизация" style="ellipse;whiteSpace=wrap;html=1;" parent="1" vertex="1">
          <mxGeometry x="95" y="-420" width="130" height="40" as="geometry" />
        </mxCell>
        <mxCell id="nmumD-B5Ra5Cr4ays23r-7" value="Поиск в каталоге" style="ellipse;whiteSpace=wrap;html=1;" parent="1" vertex="1">
          <mxGeometry x="85" y="-260" width="150" height="50" as="geometry" />
        </mxCell>
        <mxCell id="nmumD-B5Ra5Cr4ays23r-11" value="Логин и пароль" style="ellipse;whiteSpace=wrap;html=1;" parent="1" vertex="1">
          <mxGeometry x="260" y="-422.5" width="140" height="45" as="geometry" />
        </mxCell>
        <mxCell id="3eoNS1XtMzhZHBGaIGGO-13" value="" style="edgeStyle=orthogonalEdgeStyle;rounded=0;orthogonalLoop=1;jettySize=auto;html=1;" parent="1" source="nmumD-B5Ra5Cr4ays23r-17" target="3eoNS1XtMzhZHBGaIGGO-12" edge="1">
          <mxGeometry relative="1" as="geometry" />
        </mxCell>
        <mxCell id="nmumD-B5Ra5Cr4ays23r-17" value="Сотрудник" style="shape=umlActor;verticalLabelPosition=bottom;verticalAlign=top;html=1;outlineConnect=0;" parent="1" vertex="1">
          <mxGeometry x="540" y="-380" width="30" height="60" as="geometry" />
        </mxCell>
        <mxCell id="nmumD-B5Ra5Cr4ays23r-25" value="добавление книги в закладку&amp;nbsp;" style="ellipse;whiteSpace=wrap;html=1;" parent="1" vertex="1">
          <mxGeometry x="75" y="-340" width="160" height="60" as="geometry" />
        </mxCell>
        <mxCell id="nmumD-B5Ra5Cr4ays23r-32" value="закладка страници" style="ellipse;whiteSpace=wrap;html=1;" parent="1" vertex="1">
          <mxGeometry x="260" y="-330" width="160" height="60" as="geometry" />
        </mxCell>
        <mxCell id="nmumD-B5Ra5Cr4ays23r-37" value="" style="endArrow=none;dashed=1;html=1;rounded=0;entryX=0;entryY=0.5;entryDx=0;entryDy=0;" parent="1" source="nmumD-B5Ra5Cr4ays23r-1" target="nmumD-B5Ra5Cr4ays23r-25" edge="1">
          <mxGeometry width="50" height="50" relative="1" as="geometry">
            <mxPoint x="30" y="-280" as="sourcePoint" />
            <mxPoint x="80" y="-330" as="targetPoint" />
            <Array as="points">
              <mxPoint x="30" y="-310" />
            </Array>
          </mxGeometry>
        </mxCell>
        <mxCell id="nmumD-B5Ra5Cr4ays23r-38" value="" style="endArrow=none;dashed=1;html=1;rounded=0;" parent="1" target="nmumD-B5Ra5Cr4ays23r-32" edge="1">
          <mxGeometry width="50" height="50" relative="1" as="geometry">
            <mxPoint x="40" y="-360" as="sourcePoint" />
            <mxPoint x="300" y="-350" as="targetPoint" />
            <Array as="points">
              <mxPoint x="170" y="-370" />
              <mxPoint x="240" y="-380" />
            </Array>
          </mxGeometry>
        </mxCell>
        <mxCell id="nmumD-B5Ra5Cr4ays23r-39" value="удаление книги" style="ellipse;whiteSpace=wrap;html=1;" parent="1" vertex="1">
          <mxGeometry x="560" y="-502.5" width="120" height="52.5" as="geometry" />
        </mxCell>
        <mxCell id="aUxKRUiWRqeRugZHZOHy-1" value="Добавление книг" style="ellipse;whiteSpace=wrap;html=1;" parent="1" vertex="1">
          <mxGeometry x="550" y="-590" width="120" height="44" as="geometry" />
        </mxCell>
        <mxCell id="3eoNS1XtMzhZHBGaIGGO-2" value="добавление пользователя" style="ellipse;whiteSpace=wrap;html=1;" parent="1" vertex="1">
          <mxGeometry x="240" y="-616" width="140" height="70" as="geometry" />
        </mxCell>
        <mxCell id="3eoNS1XtMzhZHBGaIGGO-3" value="изменение книги" style="ellipse;whiteSpace=wrap;html=1;" parent="1" vertex="1">
          <mxGeometry x="240" y="-710" width="120" height="60" as="geometry" />
        </mxCell>
        <mxCell id="3eoNS1XtMzhZHBGaIGGO-4" value="удаление&amp;nbsp;&lt;div&gt;пользователя&lt;/div&gt;" style="ellipse;whiteSpace=wrap;html=1;" parent="1" vertex="1">
          <mxGeometry x="545" y="-640" width="130" height="40" as="geometry" />
        </mxCell>
        <mxCell id="3eoNS1XtMzhZHBGaIGGO-12" value="добавить книги" style="ellipse;whiteSpace=wrap;html=1;" parent="1" vertex="1">
          <mxGeometry x="630" y="-375" width="120" height="50" as="geometry" />
        </mxCell>
        <mxCell id="3eoNS1XtMzhZHBGaIGGO-14" value="подержка" style="ellipse;whiteSpace=wrap;html=1;" parent="1" vertex="1">
          <mxGeometry x="405" y="-780" width="145" height="70" as="geometry" />
        </mxCell>
        <mxCell id="3eoNS1XtMzhZHBGaIGGO-15" style="edgeStyle=orthogonalEdgeStyle;rounded=0;orthogonalLoop=1;jettySize=auto;html=1;entryX=0.414;entryY=0.857;entryDx=0;entryDy=0;entryPerimeter=0;" parent="1" source="nmumD-B5Ra5Cr4ays23r-4" target="3eoNS1XtMzhZHBGaIGGO-14" edge="1">
          <mxGeometry relative="1" as="geometry" />
        </mxCell>
      </root>
    </mxGraphModel>
  </diagram>
  <diagram id="1AfVxIgcF2uuT3TlGBIz" name="Страница — 2">
    <mxGraphModel dx="3627" dy="3536" grid="1" gridSize="10" guides="1" tooltips="1" connect="1" arrows="1" fold="1" page="1" pageScale="1" pageWidth="827" pageHeight="1169" math="0" shadow="0">
      <root>
        <mxCell id="0" />
        <mxCell id="1" parent="0" />
        <mxCell id="yfa9gE26hBN8Jl3IvZFB-5" value="" style="edgeStyle=orthogonalEdgeStyle;rounded=0;orthogonalLoop=1;jettySize=auto;html=1;" parent="1" source="yfa9gE26hBN8Jl3IvZFB-3" target="yfa9gE26hBN8Jl3IvZFB-4" edge="1">
          <mxGeometry relative="1" as="geometry" />
        </mxCell>
        <mxCell id="yfa9gE26hBN8Jl3IvZFB-3" value="" style="verticalLabelPosition=bottom;verticalAlign=top;html=1;shape=mxgraph.flowchart.on-page_reference;" parent="1" vertex="1">
          <mxGeometry x="330" y="-2330" width="60" height="40" as="geometry" />
        </mxCell>
        <mxCell id="yfa9gE26hBN8Jl3IvZFB-7" value="" style="edgeStyle=orthogonalEdgeStyle;rounded=0;orthogonalLoop=1;jettySize=auto;html=1;" parent="1" source="yfa9gE26hBN8Jl3IvZFB-4" target="yfa9gE26hBN8Jl3IvZFB-6" edge="1">
          <mxGeometry relative="1" as="geometry" />
        </mxCell>
        <mxCell id="yfa9gE26hBN8Jl3IvZFB-4" value="Запуск приложение" style="rounded=1;whiteSpace=wrap;html=1;" parent="1" vertex="1">
          <mxGeometry x="270" y="-2260" width="180" height="60" as="geometry" />
        </mxCell>
        <mxCell id="yfa9gE26hBN8Jl3IvZFB-10" style="edgeStyle=orthogonalEdgeStyle;rounded=0;orthogonalLoop=1;jettySize=auto;html=1;" parent="1" source="yfa9gE26hBN8Jl3IvZFB-6" target="yfa9gE26hBN8Jl3IvZFB-8" edge="1">
          <mxGeometry relative="1" as="geometry" />
        </mxCell>
        <mxCell id="yfa9gE26hBN8Jl3IvZFB-12" style="edgeStyle=orthogonalEdgeStyle;rounded=0;orthogonalLoop=1;jettySize=auto;html=1;" parent="1" source="yfa9gE26hBN8Jl3IvZFB-6" target="yfa9gE26hBN8Jl3IvZFB-11" edge="1">
          <mxGeometry relative="1" as="geometry" />
        </mxCell>
        <mxCell id="yfa9gE26hBN8Jl3IvZFB-6" value="Пользователь Авторизован" style="rounded=1;whiteSpace=wrap;html=1;" parent="1" vertex="1">
          <mxGeometry x="245" y="-2170" width="230" height="60" as="geometry" />
        </mxCell>
        <mxCell id="yfa9gE26hBN8Jl3IvZFB-17" value="" style="edgeStyle=orthogonalEdgeStyle;rounded=0;orthogonalLoop=1;jettySize=auto;html=1;" parent="1" source="yfa9gE26hBN8Jl3IvZFB-8" target="yfa9gE26hBN8Jl3IvZFB-9" edge="1">
          <mxGeometry relative="1" as="geometry">
            <Array as="points">
              <mxPoint x="160" y="-1980" />
              <mxPoint x="160" y="-1980" />
            </Array>
          </mxGeometry>
        </mxCell>
        <mxCell id="yfa9gE26hBN8Jl3IvZFB-8" value="Вход в личный кабинет" style="rounded=1;whiteSpace=wrap;html=1;" parent="1" vertex="1">
          <mxGeometry x="40" y="-2070" width="190" height="40" as="geometry" />
        </mxCell>
        <mxCell id="sRpRY-_IRMBBgWwa01Kt-20" style="edgeStyle=orthogonalEdgeStyle;rounded=0;orthogonalLoop=1;jettySize=auto;html=1;exitX=0;exitY=0.5;exitDx=0;exitDy=0;" parent="1" source="yfa9gE26hBN8Jl3IvZFB-9" target="yfa9gE26hBN8Jl3IvZFB-21" edge="1">
          <mxGeometry relative="1" as="geometry" />
        </mxCell>
        <mxCell id="yfa9gE26hBN8Jl3IvZFB-9" value="Пользователь хочет искать книги" style="rounded=1;whiteSpace=wrap;html=1;" parent="1" vertex="1">
          <mxGeometry x="80" y="-2000" width="190" height="40" as="geometry" />
        </mxCell>
        <mxCell id="sRpRY-_IRMBBgWwa01Kt-66" style="edgeStyle=orthogonalEdgeStyle;rounded=0;orthogonalLoop=1;jettySize=auto;html=1;exitX=0.75;exitY=1;exitDx=0;exitDy=0;entryX=1;entryY=0.5;entryDx=0;entryDy=0;" parent="1" source="yfa9gE26hBN8Jl3IvZFB-11" target="sRpRY-_IRMBBgWwa01Kt-64" edge="1">
          <mxGeometry relative="1" as="geometry" />
        </mxCell>
        <mxCell id="yfa9gE26hBN8Jl3IvZFB-11" value="Регистрация/Авторизация" style="rounded=1;whiteSpace=wrap;html=1;" parent="1" vertex="1">
          <mxGeometry x="490" y="-2080" width="230" height="60" as="geometry" />
        </mxCell>
        <mxCell id="yfa9gE26hBN8Jl3IvZFB-13" value="Да" style="text;html=1;align=center;verticalAlign=middle;whiteSpace=wrap;rounded=0;" parent="1" vertex="1">
          <mxGeometry x="180" y="-2110" width="60" height="30" as="geometry" />
        </mxCell>
        <mxCell id="yfa9gE26hBN8Jl3IvZFB-14" value="нет" style="text;html=1;align=center;verticalAlign=middle;whiteSpace=wrap;rounded=0;" parent="1" vertex="1">
          <mxGeometry x="500" y="-2110" width="60" height="30" as="geometry" />
        </mxCell>
        <mxCell id="sRpRY-_IRMBBgWwa01Kt-63" style="edgeStyle=orthogonalEdgeStyle;rounded=0;orthogonalLoop=1;jettySize=auto;html=1;exitX=1;exitY=1;exitDx=0;exitDy=0;entryX=1;entryY=0.5;entryDx=0;entryDy=0;" parent="1" source="yfa9gE26hBN8Jl3IvZFB-15" target="sRpRY-_IRMBBgWwa01Kt-57" edge="1">
          <mxGeometry relative="1" as="geometry">
            <Array as="points">
              <mxPoint x="420" y="-1280" />
              <mxPoint x="200" y="-1280" />
            </Array>
          </mxGeometry>
        </mxCell>
        <mxCell id="yfa9gE26hBN8Jl3IvZFB-15" value="Переход к другим функциям" style="rounded=1;whiteSpace=wrap;html=1;" parent="1" vertex="1">
          <mxGeometry x="230" y="-1940" width="190" height="40" as="geometry" />
        </mxCell>
        <mxCell id="sRpRY-_IRMBBgWwa01Kt-72" value="" style="edgeStyle=orthogonalEdgeStyle;rounded=0;orthogonalLoop=1;jettySize=auto;html=1;" parent="1" source="yfa9gE26hBN8Jl3IvZFB-19" target="yfa9gE26hBN8Jl3IvZFB-27" edge="1">
          <mxGeometry relative="1" as="geometry">
            <Array as="points">
              <mxPoint x="12" y="-1810" />
              <mxPoint x="12" y="-1810" />
            </Array>
          </mxGeometry>
        </mxCell>
        <mxCell id="yfa9gE26hBN8Jl3IvZFB-19" value="Поиск Книг" style="rounded=1;whiteSpace=wrap;html=1;" parent="1" vertex="1">
          <mxGeometry x="-30" y="-1860" width="100" height="33" as="geometry" />
        </mxCell>
        <mxCell id="sRpRY-_IRMBBgWwa01Kt-21" value="" style="edgeStyle=orthogonalEdgeStyle;rounded=0;orthogonalLoop=1;jettySize=auto;html=1;" parent="1" source="yfa9gE26hBN8Jl3IvZFB-21" target="yfa9gE26hBN8Jl3IvZFB-19" edge="1">
          <mxGeometry relative="1" as="geometry">
            <Array as="points">
              <mxPoint x="10" y="-1830" />
              <mxPoint x="10" y="-1830" />
            </Array>
          </mxGeometry>
        </mxCell>
        <mxCell id="yfa9gE26hBN8Jl3IvZFB-21" value="Ввод критериев поиска" style="rounded=1;whiteSpace=wrap;html=1;" parent="1" vertex="1">
          <mxGeometry x="-75" y="-1940" width="190" height="40" as="geometry" />
        </mxCell>
        <mxCell id="yfa9gE26hBN8Jl3IvZFB-25" value="Да" style="text;html=1;align=center;verticalAlign=middle;whiteSpace=wrap;rounded=0;" parent="1" vertex="1">
          <mxGeometry x="20" y="-1970" width="40" height="20" as="geometry" />
        </mxCell>
        <mxCell id="yfa9gE26hBN8Jl3IvZFB-26" value="Нет" style="text;html=1;align=center;verticalAlign=middle;whiteSpace=wrap;rounded=0;" parent="1" vertex="1">
          <mxGeometry x="320" y="-1970" width="50" height="20" as="geometry" />
        </mxCell>
        <mxCell id="yfa9gE26hBN8Jl3IvZFB-27" value="Найдены книги" style="shape=hexagon;perimeter=hexagonPerimeter2;whiteSpace=wrap;html=1;fixedSize=1;" parent="1" vertex="1">
          <mxGeometry x="-72.5" y="-1780" width="170" height="40" as="geometry" />
        </mxCell>
        <mxCell id="sRpRY-_IRMBBgWwa01Kt-24" value="" style="edgeStyle=orthogonalEdgeStyle;rounded=0;orthogonalLoop=1;jettySize=auto;html=1;" parent="1" source="yfa9gE26hBN8Jl3IvZFB-29" target="sRpRY-_IRMBBgWwa01Kt-3" edge="1">
          <mxGeometry relative="1" as="geometry">
            <Array as="points">
              <mxPoint x="-155" y="-1560" />
              <mxPoint x="-155" y="-1560" />
            </Array>
          </mxGeometry>
        </mxCell>
        <mxCell id="yfa9gE26hBN8Jl3IvZFB-29" value="Ввод списка найденных книг" style="rounded=1;whiteSpace=wrap;html=1;" parent="1" vertex="1">
          <mxGeometry x="-235" y="-1700" width="160" height="40" as="geometry" />
        </mxCell>
        <mxCell id="yfa9gE26hBN8Jl3IvZFB-36" style="edgeStyle=orthogonalEdgeStyle;rounded=0;orthogonalLoop=1;jettySize=auto;html=1;exitX=0;exitY=0.5;exitDx=0;exitDy=0;entryX=0.365;entryY=-0.065;entryDx=0;entryDy=0;entryPerimeter=0;" parent="1" source="yfa9gE26hBN8Jl3IvZFB-27" target="yfa9gE26hBN8Jl3IvZFB-29" edge="1">
          <mxGeometry relative="1" as="geometry" />
        </mxCell>
        <mxCell id="sRpRY-_IRMBBgWwa01Kt-56" style="edgeStyle=orthogonalEdgeStyle;rounded=0;orthogonalLoop=1;jettySize=auto;html=1;exitX=0.5;exitY=1;exitDx=0;exitDy=0;entryX=1;entryY=0.5;entryDx=0;entryDy=0;" parent="1" source="sRpRY-_IRMBBgWwa01Kt-2" target="sRpRY-_IRMBBgWwa01Kt-51" edge="1">
          <mxGeometry relative="1" as="geometry">
            <Array as="points">
              <mxPoint x="170" y="-1290" />
              <mxPoint x="80" y="-1290" />
            </Array>
          </mxGeometry>
        </mxCell>
        <mxCell id="sRpRY-_IRMBBgWwa01Kt-2" value="сообщение об отсутствии&lt;div&gt;результатов&lt;/div&gt;" style="rounded=1;whiteSpace=wrap;html=1;" parent="1" vertex="1">
          <mxGeometry x="40" y="-1700" width="240" height="40" as="geometry" />
        </mxCell>
        <mxCell id="sRpRY-_IRMBBgWwa01Kt-3" value="Пользователь выбирает книгу" style="rounded=1;whiteSpace=wrap;html=1;" parent="1" vertex="1">
          <mxGeometry x="-257.5" y="-1600" width="205" height="30" as="geometry" />
        </mxCell>
        <mxCell id="sRpRY-_IRMBBgWwa01Kt-7" style="edgeStyle=orthogonalEdgeStyle;rounded=0;orthogonalLoop=1;jettySize=auto;html=1;exitX=1;exitY=0.5;exitDx=0;exitDy=0;entryX=0.596;entryY=0.025;entryDx=0;entryDy=0;entryPerimeter=0;" parent="1" source="yfa9gE26hBN8Jl3IvZFB-27" target="sRpRY-_IRMBBgWwa01Kt-2" edge="1">
          <mxGeometry relative="1" as="geometry" />
        </mxCell>
        <mxCell id="sRpRY-_IRMBBgWwa01Kt-17" value="" style="edgeStyle=orthogonalEdgeStyle;rounded=0;orthogonalLoop=1;jettySize=auto;html=1;" parent="1" source="sRpRY-_IRMBBgWwa01Kt-8" target="sRpRY-_IRMBBgWwa01Kt-16" edge="1">
          <mxGeometry relative="1" as="geometry" />
        </mxCell>
        <mxCell id="sRpRY-_IRMBBgWwa01Kt-8" value="просмотр инф&lt;div&gt;о книге&lt;/div&gt;" style="rounded=1;whiteSpace=wrap;html=1;" parent="1" vertex="1">
          <mxGeometry x="-377.5" y="-1537.5" width="120" height="30" as="geometry" />
        </mxCell>
        <mxCell id="sRpRY-_IRMBBgWwa01Kt-9" style="edgeStyle=orthogonalEdgeStyle;rounded=0;orthogonalLoop=1;jettySize=auto;html=1;exitX=0;exitY=0.5;exitDx=0;exitDy=0;entryX=0.375;entryY=0;entryDx=0;entryDy=0;entryPerimeter=0;" parent="1" source="sRpRY-_IRMBBgWwa01Kt-3" target="sRpRY-_IRMBBgWwa01Kt-8" edge="1">
          <mxGeometry relative="1" as="geometry" />
        </mxCell>
        <mxCell id="sRpRY-_IRMBBgWwa01Kt-50" style="edgeStyle=orthogonalEdgeStyle;rounded=0;orthogonalLoop=1;jettySize=auto;html=1;entryX=1;entryY=0.5;entryDx=0;entryDy=0;" parent="1" source="sRpRY-_IRMBBgWwa01Kt-10" target="sRpRY-_IRMBBgWwa01Kt-42" edge="1">
          <mxGeometry relative="1" as="geometry">
            <Array as="points">
              <mxPoint y="-1310" />
              <mxPoint x="-207" y="-1310" />
            </Array>
          </mxGeometry>
        </mxCell>
        <mxCell id="sRpRY-_IRMBBgWwa01Kt-10" value="Возврат к поиску" style="rounded=1;whiteSpace=wrap;html=1;" parent="1" vertex="1">
          <mxGeometry x="-80" y="-1537.5" width="130" height="35" as="geometry" />
        </mxCell>
        <mxCell id="sRpRY-_IRMBBgWwa01Kt-11" style="edgeStyle=orthogonalEdgeStyle;rounded=0;orthogonalLoop=1;jettySize=auto;html=1;exitX=1;exitY=0.5;exitDx=0;exitDy=0;entryX=0.623;entryY=0.114;entryDx=0;entryDy=0;entryPerimeter=0;" parent="1" source="sRpRY-_IRMBBgWwa01Kt-3" target="sRpRY-_IRMBBgWwa01Kt-10" edge="1">
          <mxGeometry relative="1" as="geometry" />
        </mxCell>
        <mxCell id="sRpRY-_IRMBBgWwa01Kt-12" value="Да" style="text;html=1;align=center;verticalAlign=middle;whiteSpace=wrap;rounded=0;" parent="1" vertex="1">
          <mxGeometry x="-320" y="-1575" width="50" height="20" as="geometry" />
        </mxCell>
        <mxCell id="sRpRY-_IRMBBgWwa01Kt-13" value="Нет" style="text;html=1;align=center;verticalAlign=middle;whiteSpace=wrap;rounded=0;" parent="1" vertex="1">
          <mxGeometry x="-40" y="-1570" width="30" height="10" as="geometry" />
        </mxCell>
        <mxCell id="sRpRY-_IRMBBgWwa01Kt-14" value="Да" style="text;html=1;align=center;verticalAlign=middle;whiteSpace=wrap;rounded=0;" parent="1" vertex="1">
          <mxGeometry x="-140" y="-1753" width="40" height="20" as="geometry" />
        </mxCell>
        <mxCell id="sRpRY-_IRMBBgWwa01Kt-15" value="нет" style="text;html=1;align=center;verticalAlign=middle;whiteSpace=wrap;rounded=0;" parent="1" vertex="1">
          <mxGeometry x="97.5" y="-1753" width="45" height="20" as="geometry" />
        </mxCell>
        <mxCell id="sRpRY-_IRMBBgWwa01Kt-28" style="edgeStyle=orthogonalEdgeStyle;rounded=0;orthogonalLoop=1;jettySize=auto;html=1;" parent="1" source="sRpRY-_IRMBBgWwa01Kt-16" target="sRpRY-_IRMBBgWwa01Kt-25" edge="1">
          <mxGeometry relative="1" as="geometry">
            <Array as="points">
              <mxPoint x="-200" y="-1455" />
            </Array>
          </mxGeometry>
        </mxCell>
        <mxCell id="sRpRY-_IRMBBgWwa01Kt-16" value="пользователь хочет взять книгу" style="rounded=1;whiteSpace=wrap;html=1;" parent="1" vertex="1">
          <mxGeometry x="-400" y="-1470" width="165" height="30" as="geometry" />
        </mxCell>
        <mxCell id="sRpRY-_IRMBBgWwa01Kt-37" value="" style="edgeStyle=orthogonalEdgeStyle;rounded=0;orthogonalLoop=1;jettySize=auto;html=1;" parent="1" source="sRpRY-_IRMBBgWwa01Kt-18" target="sRpRY-_IRMBBgWwa01Kt-36" edge="1">
          <mxGeometry relative="1" as="geometry" />
        </mxCell>
        <mxCell id="sRpRY-_IRMBBgWwa01Kt-18" value="Бронирование&amp;nbsp;&lt;div&gt;книги&lt;/div&gt;" style="rounded=1;whiteSpace=wrap;html=1;" parent="1" vertex="1">
          <mxGeometry x="-490" y="-1370" width="90" height="30" as="geometry" />
        </mxCell>
        <mxCell id="sRpRY-_IRMBBgWwa01Kt-19" style="edgeStyle=orthogonalEdgeStyle;rounded=0;orthogonalLoop=1;jettySize=auto;html=1;exitX=1;exitY=0.5;exitDx=0;exitDy=0;entryX=0.421;entryY=0;entryDx=0;entryDy=0;entryPerimeter=0;" parent="1" source="yfa9gE26hBN8Jl3IvZFB-9" target="yfa9gE26hBN8Jl3IvZFB-15" edge="1">
          <mxGeometry relative="1" as="geometry" />
        </mxCell>
        <mxCell id="sRpRY-_IRMBBgWwa01Kt-23" style="edgeStyle=orthogonalEdgeStyle;rounded=0;orthogonalLoop=1;jettySize=auto;html=1;exitX=0.5;exitY=1;exitDx=0;exitDy=0;" parent="1" source="sRpRY-_IRMBBgWwa01Kt-13" target="sRpRY-_IRMBBgWwa01Kt-13" edge="1">
          <mxGeometry relative="1" as="geometry" />
        </mxCell>
        <mxCell id="sRpRY-_IRMBBgWwa01Kt-25" value="Возврат к списку книг" style="rounded=1;whiteSpace=wrap;html=1;" parent="1" vertex="1">
          <mxGeometry x="-247.5" y="-1370" width="95" height="30" as="geometry" />
        </mxCell>
        <mxCell id="sRpRY-_IRMBBgWwa01Kt-33" style="edgeStyle=orthogonalEdgeStyle;rounded=0;orthogonalLoop=1;jettySize=auto;html=1;exitX=0;exitY=0.5;exitDx=0;exitDy=0;entryX=0.4;entryY=-0.075;entryDx=0;entryDy=0;entryPerimeter=0;" parent="1" source="sRpRY-_IRMBBgWwa01Kt-16" target="sRpRY-_IRMBBgWwa01Kt-18" edge="1">
          <mxGeometry relative="1" as="geometry" />
        </mxCell>
        <mxCell id="sRpRY-_IRMBBgWwa01Kt-34" value="Да" style="text;html=1;align=center;verticalAlign=middle;whiteSpace=wrap;rounded=0;" parent="1" vertex="1">
          <mxGeometry x="-450" y="-1420" width="20" height="20" as="geometry" />
        </mxCell>
        <mxCell id="sRpRY-_IRMBBgWwa01Kt-35" value="нет" style="text;html=1;align=center;verticalAlign=middle;whiteSpace=wrap;rounded=0;" parent="1" vertex="1">
          <mxGeometry x="-232.5" y="-1420" width="25" height="20" as="geometry" />
        </mxCell>
        <mxCell id="sRpRY-_IRMBBgWwa01Kt-41" style="edgeStyle=orthogonalEdgeStyle;rounded=0;orthogonalLoop=1;jettySize=auto;html=1;exitX=0.5;exitY=1;exitDx=0;exitDy=0;" parent="1" source="sRpRY-_IRMBBgWwa01Kt-36" target="sRpRY-_IRMBBgWwa01Kt-38" edge="1">
          <mxGeometry relative="1" as="geometry">
            <Array as="points">
              <mxPoint x="-440" y="-1260" />
            </Array>
          </mxGeometry>
        </mxCell>
        <mxCell id="sRpRY-_IRMBBgWwa01Kt-36" value="Получение уведомление о доступности" style="rounded=1;whiteSpace=wrap;html=1;" parent="1" vertex="1">
          <mxGeometry x="-560" y="-1310" width="240" height="20" as="geometry" />
        </mxCell>
        <mxCell id="sRpRY-_IRMBBgWwa01Kt-43" value="" style="edgeStyle=orthogonalEdgeStyle;rounded=0;orthogonalLoop=1;jettySize=auto;html=1;" parent="1" source="sRpRY-_IRMBBgWwa01Kt-38" target="sRpRY-_IRMBBgWwa01Kt-42" edge="1">
          <mxGeometry relative="1" as="geometry" />
        </mxCell>
        <mxCell id="sRpRY-_IRMBBgWwa01Kt-54" style="edgeStyle=orthogonalEdgeStyle;rounded=0;orthogonalLoop=1;jettySize=auto;html=1;exitX=0.5;exitY=1;exitDx=0;exitDy=0;entryX=0;entryY=0.5;entryDx=0;entryDy=0;" parent="1" source="sRpRY-_IRMBBgWwa01Kt-38" target="sRpRY-_IRMBBgWwa01Kt-51" edge="1">
          <mxGeometry relative="1" as="geometry">
            <Array as="points">
              <mxPoint x="-255" y="-1260" />
            </Array>
          </mxGeometry>
        </mxCell>
        <mxCell id="sRpRY-_IRMBBgWwa01Kt-42" value="" style="rhombus;whiteSpace=wrap;html=1;" parent="1" vertex="1">
          <mxGeometry x="-275" y="-1330" width="40" height="40" as="geometry" />
        </mxCell>
        <mxCell id="sRpRY-_IRMBBgWwa01Kt-62" style="edgeStyle=orthogonalEdgeStyle;rounded=0;orthogonalLoop=1;jettySize=auto;html=1;exitX=0;exitY=1;exitDx=0;exitDy=0;entryX=0;entryY=0.5;entryDx=0;entryDy=0;" parent="1" source="sRpRY-_IRMBBgWwa01Kt-51" target="sRpRY-_IRMBBgWwa01Kt-57" edge="1">
          <mxGeometry relative="1" as="geometry">
            <Array as="points">
              <mxPoint x="50" y="-1230" />
            </Array>
          </mxGeometry>
        </mxCell>
        <mxCell id="sRpRY-_IRMBBgWwa01Kt-51" value="" style="rhombus;whiteSpace=wrap;html=1;" parent="1" vertex="1">
          <mxGeometry x="40" y="-1280" width="40" height="40" as="geometry" />
        </mxCell>
        <mxCell id="sRpRY-_IRMBBgWwa01Kt-55" value="" style="edgeStyle=orthogonalEdgeStyle;rounded=0;orthogonalLoop=1;jettySize=auto;html=1;exitX=0.5;exitY=1;exitDx=0;exitDy=0;entryX=0;entryY=0.5;entryDx=0;entryDy=0;" parent="1" source="sRpRY-_IRMBBgWwa01Kt-42" target="sRpRY-_IRMBBgWwa01Kt-38" edge="1">
          <mxGeometry relative="1" as="geometry">
            <mxPoint x="-255" y="-1290" as="sourcePoint" />
            <mxPoint x="40" y="-1260" as="targetPoint" />
            <Array as="points">
              <mxPoint x="-227" y="-1260" />
              <mxPoint x="40" y="-1260" />
            </Array>
          </mxGeometry>
        </mxCell>
        <mxCell id="sRpRY-_IRMBBgWwa01Kt-38" value="" style="rhombus;whiteSpace=wrap;html=1;" parent="1" vertex="1">
          <mxGeometry x="-275" y="-1280" width="40" height="40" as="geometry" />
        </mxCell>
        <mxCell id="sRpRY-_IRMBBgWwa01Kt-65" style="edgeStyle=orthogonalEdgeStyle;rounded=0;orthogonalLoop=1;jettySize=auto;html=1;exitX=0.5;exitY=1;exitDx=0;exitDy=0;" parent="1" source="sRpRY-_IRMBBgWwa01Kt-57" target="sRpRY-_IRMBBgWwa01Kt-64" edge="1">
          <mxGeometry relative="1" as="geometry">
            <Array as="points">
              <mxPoint x="180" y="-1230" />
            </Array>
          </mxGeometry>
        </mxCell>
        <mxCell id="sRpRY-_IRMBBgWwa01Kt-57" value="" style="rhombus;whiteSpace=wrap;html=1;" parent="1" vertex="1">
          <mxGeometry x="160" y="-1250" width="40" height="40" as="geometry" />
        </mxCell>
        <mxCell id="sRpRY-_IRMBBgWwa01Kt-70" style="edgeStyle=orthogonalEdgeStyle;rounded=0;orthogonalLoop=1;jettySize=auto;html=1;entryX=0.5;entryY=0;entryDx=0;entryDy=0;" parent="1" source="sRpRY-_IRMBBgWwa01Kt-64" target="sRpRY-_IRMBBgWwa01Kt-67" edge="1">
          <mxGeometry relative="1" as="geometry" />
        </mxCell>
        <mxCell id="sRpRY-_IRMBBgWwa01Kt-64" value="" style="rhombus;whiteSpace=wrap;html=1;" parent="1" vertex="1">
          <mxGeometry x="470" y="-1260" width="40" height="40" as="geometry" />
        </mxCell>
        <mxCell id="sRpRY-_IRMBBgWwa01Kt-67" value="Выход из приложения" style="rounded=1;whiteSpace=wrap;html=1;" parent="1" vertex="1">
          <mxGeometry x="455" y="-1210" width="75" height="20" as="geometry" />
        </mxCell>
      </root>
    </mxGraphModel>
  </diagram>
  <diagram id="2V_wU0XODU_G1394FZne" name="Страница — 3">
    <mxGraphModel dx="679" dy="399" grid="1" gridSize="10" guides="1" tooltips="1" connect="1" arrows="1" fold="1" page="1" pageScale="1" pageWidth="827" pageHeight="1169" math="0" shadow="0">
      <root>
        <mxCell id="0" />
        <mxCell id="1" parent="0" />
        <mxCell id="CtVvC2LDs1R6e8WCx2l1-1" value="пользователь" style="rounded=0;whiteSpace=wrap;html=1;" vertex="1" parent="1">
          <mxGeometry x="10" y="10" width="80" height="40" as="geometry" />
        </mxCell>
        <mxCell id="CtVvC2LDs1R6e8WCx2l1-3" value="авторизация" style="rounded=0;whiteSpace=wrap;html=1;" vertex="1" parent="1">
          <mxGeometry x="110" y="10" width="80" height="40" as="geometry" />
        </mxCell>
        <mxCell id="CtVvC2LDs1R6e8WCx2l1-4" value="поиск&lt;div&gt;книг&lt;/div&gt;" style="rounded=0;whiteSpace=wrap;html=1;" vertex="1" parent="1">
          <mxGeometry x="210" y="10" width="80" height="40" as="geometry" />
        </mxCell>
        <mxCell id="CtVvC2LDs1R6e8WCx2l1-5" value="информация о&lt;div&gt;книги&lt;/div&gt;" style="rounded=0;whiteSpace=wrap;html=1;" vertex="1" parent="1">
          <mxGeometry x="300" y="10" width="86" height="40" as="geometry" />
        </mxCell>
        <mxCell id="lxuCuBWrqYlLd_RWGFQe-1" value="покупка книги/аренда книги" style="rounded=0;whiteSpace=wrap;html=1;" vertex="1" parent="1">
          <mxGeometry x="490" y="10" width="90" height="40" as="geometry" />
        </mxCell>
        <mxCell id="LKIq7js9hgIW23BcHcMb-2" value="рейтинг&amp;nbsp;&lt;div&gt;книги&lt;/div&gt;" style="rounded=0;whiteSpace=wrap;html=1;" vertex="1" parent="1">
          <mxGeometry x="400" y="10" width="80" height="40" as="geometry" />
        </mxCell>
        <mxCell id="LKIq7js9hgIW23BcHcMb-3" value="возврат книги" style="rounded=0;whiteSpace=wrap;html=1;" vertex="1" parent="1">
          <mxGeometry x="600" y="10" width="80" height="40" as="geometry" />
        </mxCell>
        <mxCell id="LKIq7js9hgIW23BcHcMb-4" value="" style="endArrow=none;dashed=1;html=1;rounded=0;" edge="1" parent="1">
          <mxGeometry width="50" height="50" relative="1" as="geometry">
            <mxPoint x="60" y="240" as="sourcePoint" />
            <mxPoint x="60" y="50" as="targetPoint" />
          </mxGeometry>
        </mxCell>
        <mxCell id="LKIq7js9hgIW23BcHcMb-5" value="" style="endArrow=none;dashed=1;html=1;rounded=0;" edge="1" parent="1">
          <mxGeometry width="50" height="50" relative="1" as="geometry">
            <mxPoint x="170" y="240" as="sourcePoint" />
            <mxPoint x="170" y="50" as="targetPoint" />
          </mxGeometry>
        </mxCell>
        <mxCell id="LKIq7js9hgIW23BcHcMb-6" value="" style="endArrow=none;dashed=1;html=1;rounded=0;" edge="1" parent="1">
          <mxGeometry width="50" height="50" relative="1" as="geometry">
            <mxPoint x="269.83" y="122.5" as="sourcePoint" />
            <mxPoint x="269.83" y="47.5" as="targetPoint" />
          </mxGeometry>
        </mxCell>
        <mxCell id="LKIq7js9hgIW23BcHcMb-7" value="" style="endArrow=none;dashed=1;html=1;rounded=0;entryX=0.688;entryY=1.08;entryDx=0;entryDy=0;entryPerimeter=0;" edge="1" parent="1" target="CtVvC2LDs1R6e8WCx2l1-5">
          <mxGeometry width="50" height="50" relative="1" as="geometry">
            <mxPoint x="360" y="320" as="sourcePoint" />
            <mxPoint x="360" y="50" as="targetPoint" />
          </mxGeometry>
        </mxCell>
        <mxCell id="LKIq7js9hgIW23BcHcMb-8" value="" style="endArrow=none;dashed=1;html=1;rounded=0;" edge="1" parent="1" source="LKIq7js9hgIW23BcHcMb-27">
          <mxGeometry width="50" height="50" relative="1" as="geometry">
            <mxPoint x="440" y="360" as="sourcePoint" />
            <mxPoint x="440" y="50" as="targetPoint" />
          </mxGeometry>
        </mxCell>
        <mxCell id="LKIq7js9hgIW23BcHcMb-9" value="" style="endArrow=none;dashed=1;html=1;rounded=0;" edge="1" parent="1">
          <mxGeometry width="50" height="50" relative="1" as="geometry">
            <mxPoint x="540" y="561.3333333333334" as="sourcePoint" />
            <mxPoint x="540" y="50" as="targetPoint" />
          </mxGeometry>
        </mxCell>
        <mxCell id="LKIq7js9hgIW23BcHcMb-10" value="" style="endArrow=none;dashed=1;html=1;rounded=0;" edge="1" parent="1">
          <mxGeometry width="50" height="50" relative="1" as="geometry">
            <mxPoint x="640" y="720.3333333333334" as="sourcePoint" />
            <mxPoint x="640" y="50" as="targetPoint" />
          </mxGeometry>
        </mxCell>
        <mxCell id="LKIq7js9hgIW23BcHcMb-11" value="" style="endArrow=classic;html=1;rounded=0;entryX=0.15;entryY=1;entryDx=0;entryDy=0;entryPerimeter=0;" edge="1" parent="1" target="LKIq7js9hgIW23BcHcMb-13">
          <mxGeometry width="50" height="50" relative="1" as="geometry">
            <mxPoint x="60" y="90" as="sourcePoint" />
            <mxPoint x="160" y="90" as="targetPoint" />
          </mxGeometry>
        </mxCell>
        <mxCell id="LKIq7js9hgIW23BcHcMb-12" value="логин/пароль" style="text;html=1;align=center;verticalAlign=middle;whiteSpace=wrap;rounded=0;" vertex="1" parent="1">
          <mxGeometry x="70" y="80" width="80" height="10" as="geometry" />
        </mxCell>
        <mxCell id="LKIq7js9hgIW23BcHcMb-13" value="" style="rounded=0;whiteSpace=wrap;html=1;rotation=90;" vertex="1" parent="1">
          <mxGeometry x="150" y="100" width="40" height="10" as="geometry" />
        </mxCell>
        <mxCell id="LKIq7js9hgIW23BcHcMb-14" value="" style="endArrow=classic;html=1;rounded=0;exitX=1;exitY=0;exitDx=0;exitDy=0;entryX=0;entryY=1;entryDx=0;entryDy=0;" edge="1" parent="1" source="LKIq7js9hgIW23BcHcMb-13" target="LKIq7js9hgIW23BcHcMb-15">
          <mxGeometry width="50" height="50" relative="1" as="geometry">
            <mxPoint x="170" y="150" as="sourcePoint" />
            <mxPoint x="260" y="125" as="targetPoint" />
          </mxGeometry>
        </mxCell>
        <mxCell id="LKIq7js9hgIW23BcHcMb-16" value="" style="endArrow=none;dashed=1;html=1;rounded=0;" edge="1" parent="1" target="LKIq7js9hgIW23BcHcMb-15">
          <mxGeometry width="50" height="50" relative="1" as="geometry">
            <mxPoint x="270" y="240" as="sourcePoint" />
            <mxPoint x="260" y="50" as="targetPoint" />
          </mxGeometry>
        </mxCell>
        <mxCell id="LKIq7js9hgIW23BcHcMb-15" value="" style="rounded=0;whiteSpace=wrap;html=1;rotation=90;" vertex="1" parent="1">
          <mxGeometry x="250" y="140" width="40" height="10" as="geometry" />
        </mxCell>
        <mxCell id="LKIq7js9hgIW23BcHcMb-18" value="" style="endArrow=classic;html=1;rounded=0;exitX=1;exitY=0;exitDx=0;exitDy=0;entryX=0;entryY=1;entryDx=0;entryDy=0;" edge="1" parent="1" source="LKIq7js9hgIW23BcHcMb-15" target="LKIq7js9hgIW23BcHcMb-24">
          <mxGeometry width="50" height="50" relative="1" as="geometry">
            <mxPoint x="270" y="170" as="sourcePoint" />
            <mxPoint x="350" y="165" as="targetPoint" />
            <Array as="points">
              <mxPoint x="310" y="165" />
            </Array>
          </mxGeometry>
        </mxCell>
        <mxCell id="LKIq7js9hgIW23BcHcMb-19" value="название/жанр" style="text;html=1;align=center;verticalAlign=middle;whiteSpace=wrap;rounded=0;" vertex="1" parent="1">
          <mxGeometry x="180" y="100" width="80" height="20" as="geometry" />
        </mxCell>
        <mxCell id="LKIq7js9hgIW23BcHcMb-20" value="о чем книга" style="text;html=1;align=center;verticalAlign=middle;whiteSpace=wrap;rounded=0;" vertex="1" parent="1">
          <mxGeometry x="280" y="140" width="60" height="20" as="geometry" />
        </mxCell>
        <mxCell id="LKIq7js9hgIW23BcHcMb-21" value="" style="endArrow=classic;html=1;rounded=0;exitX=0.961;exitY=0;exitDx=0;exitDy=0;exitPerimeter=0;entryX=0;entryY=1;entryDx=0;entryDy=0;" edge="1" parent="1" source="LKIq7js9hgIW23BcHcMb-24" target="LKIq7js9hgIW23BcHcMb-27">
          <mxGeometry width="50" height="50" relative="1" as="geometry">
            <mxPoint x="380" y="220" as="sourcePoint" />
            <mxPoint x="430" y="223" as="targetPoint" />
          </mxGeometry>
        </mxCell>
        <mxCell id="LKIq7js9hgIW23BcHcMb-24" value="" style="rounded=0;whiteSpace=wrap;html=1;rotation=90;" vertex="1" parent="1">
          <mxGeometry x="330" y="190" width="60" height="10" as="geometry" />
        </mxCell>
        <mxCell id="LKIq7js9hgIW23BcHcMb-25" value="отзывы" style="text;html=1;align=center;verticalAlign=middle;whiteSpace=wrap;rounded=0;" vertex="1" parent="1">
          <mxGeometry x="370" y="200" width="60" height="20" as="geometry" />
        </mxCell>
        <mxCell id="LKIq7js9hgIW23BcHcMb-26" value="" style="endArrow=classic;html=1;rounded=0;exitX=1;exitY=0;exitDx=0;exitDy=0;entryX=0;entryY=1;entryDx=0;entryDy=0;" edge="1" parent="1" source="LKIq7js9hgIW23BcHcMb-27" target="LKIq7js9hgIW23BcHcMb-29">
          <mxGeometry width="50" height="50" relative="1" as="geometry">
            <mxPoint x="450" y="280" as="sourcePoint" />
            <mxPoint x="530" y="275" as="targetPoint" />
          </mxGeometry>
        </mxCell>
        <mxCell id="LKIq7js9hgIW23BcHcMb-28" value="" style="endArrow=none;dashed=1;html=1;rounded=0;" edge="1" parent="1" target="LKIq7js9hgIW23BcHcMb-27">
          <mxGeometry width="50" height="50" relative="1" as="geometry">
            <mxPoint x="440" y="360" as="sourcePoint" />
            <mxPoint x="440" y="50" as="targetPoint" />
          </mxGeometry>
        </mxCell>
        <mxCell id="LKIq7js9hgIW23BcHcMb-27" value="" style="rounded=0;whiteSpace=wrap;html=1;rotation=90;" vertex="1" parent="1">
          <mxGeometry x="415" y="245" width="50" height="10" as="geometry" />
        </mxCell>
        <mxCell id="LKIq7js9hgIW23BcHcMb-29" value="" style="rounded=0;whiteSpace=wrap;html=1;rotation=90;" vertex="1" parent="1">
          <mxGeometry x="515" y="295" width="50" height="10" as="geometry" />
        </mxCell>
        <mxCell id="LKIq7js9hgIW23BcHcMb-30" value="" style="rounded=0;whiteSpace=wrap;html=1;rotation=90;" vertex="1" parent="1">
          <mxGeometry x="620" y="340" width="40" height="10" as="geometry" />
        </mxCell>
        <mxCell id="LKIq7js9hgIW23BcHcMb-31" value="" style="endArrow=classic;html=1;rounded=0;entryX=0;entryY=1;entryDx=0;entryDy=0;exitX=1;exitY=0;exitDx=0;exitDy=0;" edge="1" parent="1" source="LKIq7js9hgIW23BcHcMb-29" target="LKIq7js9hgIW23BcHcMb-30">
          <mxGeometry width="50" height="50" relative="1" as="geometry">
            <mxPoint x="550" y="325" as="sourcePoint" />
            <mxPoint x="600" y="275" as="targetPoint" />
          </mxGeometry>
        </mxCell>
      </root>
    </mxGraphModel>
  </diagram>
</mxfile>
